<?xml version="1.0" encoding="utf-8"?>
<!-- Generator: Adobe Illustrator 19.1.0, SVG Export Plug-In . SVG Version: 6.00 Build 0)  -->
<svg version="1.1" id="Layer_1" xmlns="http://www.w3.org/2000/svg" xmlns:xlink="http://www.w3.org/1999/xlink" x="0px" y="0px"
	 viewBox="0 0 64 64" enable-background="new 0 0 64 64" xml:space="preserve">
<g id="Up-arrow">
	<path d="M46.7070007,34.2929993c0.3906975,0.3906021,0.3906975,1.0233994,0,1.4140015
		c-0.3906021,0.3906975-1.0233955,0.3906975-1.4140015,0L32,22.4141006L18.7070007,35.7070007
		c-0.3906002,0.3906975-1.0233955,0.3906975-1.4139996,0C17.0977001,35.5116997,17,35.2559013,17,35
		c0-0.2557983,0.0977001-0.5116997,0.2930012-0.7070007l13.9999981-14c0.3906059-0.3906002,1.0233994-0.3906002,1.4140015,0
		L46.7070007,34.2929993z"/>
	<path d="M32,0c-17.6730995,0-32,14.3268995-32,32s14.3268995,32,32,32c17.6731987,0,32-14.3269005,32-32S49.6731987,0,32,0z M32,2
		c16.542099,0,30,13.4580002,30,30c0,16.542099-13.457901,30-30,30s-30-13.457901-30-30C2.0000007,15.4580002,15.4579,2,32,2z"/>
</g>
<g>
</g>
<g>
</g>
<g>
</g>
<g>
</g>
<g>
</g>
<g>
</g>
<g>
</g>
<g>
</g>
<g>
</g>
<g>
</g>
<g>
</g>
<g>
</g>
<g>
</g>
<g>
</g>
<g>
</g>
</svg>
